<svg width="28" height="30" viewBox="0 0 28 30" fill="none" xmlns="http://www.w3.org/2000/svg">
<path d="M13.9255 23.1332L10.4004 21.2888L23.3259 14.2799V11.6977L8.05029 19.8132L6.48356 19.0754V10.9599L19.4091 3.95109L22.5426 5.79552L10.0087 12.8044V15.0177L24.501 6.90218L26.8511 8.00884V16.1243L13.9255 23.1332Z" fill="#D9D9D9"/>
<path d="M13.9255 29.4043L1 22.0265V8.00884L13.9255 1L17.059 2.84443L4.52515 9.85327V19.8132L13.9255 25.3465L26.8511 18.3377V22.0265L13.9255 29.4043Z" fill="#D9D9D9"/>
<path d="M13.9255 23.1332L10.4004 21.2888L23.3259 14.2799V11.6977L8.05029 19.8132L6.48356 19.0754V10.9599L19.4091 3.95109L22.5426 5.79552L10.0087 12.8044V15.0177L24.501 6.90218L26.8511 8.00884V16.1243L13.9255 23.1332Z" stroke="black"/>
<path d="M13.9255 29.4043L1 22.0265V8.00884L13.9255 1L17.059 2.84443L4.52515 9.85327V19.8132L13.9255 25.3465L26.8511 18.3377V22.0265L13.9255 29.4043Z" stroke="black"/>
</svg>
